REM DIRINDEX 1\2\4,1\2\5,1\2\6,1\3\7,1\3\8,1\3\9,1\3\10
REM DIRNAME folder01,folder02,folder03,folder04,folder05,folder06,folder07,folder08,folder09,folder10
TITLE ""
FILE "b_180.mp3" MP3
  TRACK 01 AUDIO
    TITLE "0:"
    INDEX 01 00:00:00
  TRACK 02 AUDIO
    TITLE "7:cjc057_09544"
    INDEX 01 00:00:13
  TRACK 03 AUDIO
    TITLE "0:"
    INDEX 01 00:01:34
  TRACK 04 AUDIO
    TITLE "8:cjc057_09545"
    INDEX 01 00:01:68
  TRACK 05 AUDIO
    TITLE "0:"
    INDEX 01 00:04:38
  TRACK 06 AUDIO
    TITLE "9:cjc057_09546"
    INDEX 01 00:05:09
  TRACK 07 AUDIO
    TITLE "0:"
    INDEX 01 00:08:44
  TRACK 08 AUDIO
    TITLE "7:cjc057_09547"
    INDEX 01 00:09:53
  TRACK 09 AUDIO
    TITLE "0:"
    INDEX 01 00:11:07
  TRACK 10 AUDIO
    TITLE "8:cjc057_09548"
    INDEX 01 00:11:39
  TRACK 11 AUDIO
    TITLE "0:"
    INDEX 01 00:13:63
  TRACK 12 AUDIO
    TITLE "9:cjc057_09549"
    INDEX 01 00:14:33
  TRACK 13 AUDIO
    TITLE "0:"
    INDEX 01 00:17:18
  TRACK 14 AUDIO
    TITLE "7:cjc057_09550"
    INDEX 01 00:18:29
  TRACK 15 AUDIO
    TITLE "0:"
    INDEX 01 00:19:56
  TRACK 16 AUDIO
    TITLE "8:cjc057_09551"
    INDEX 01 00:20:16
  TRACK 17 AUDIO
    TITLE "0:"
    INDEX 01 00:21:57
  TRACK 18 AUDIO
    TITLE "9:cjc057_09552"
    INDEX 01 00:22:27
  TRACK 19 AUDIO
    TITLE "0:"
    INDEX 01 00:25:58
  TRACK 20 AUDIO
    TITLE "7:cjc057_09553"
    INDEX 01 00:26:66
  TRACK 21 AUDIO
    TITLE "0:"
    INDEX 01 00:28:27
  TRACK 22 AUDIO
    TITLE "8:cjc057_09554"
    INDEX 01 00:28:60
  TRACK 23 AUDIO
    TITLE "0:"
    INDEX 01 00:32:07
  TRACK 24 AUDIO
    TITLE "9:cjc057_09555"
    INDEX 01 00:32:52
  TRACK 25 AUDIO
    TITLE "0:"
    INDEX 01 00:35:12
  TRACK 26 AUDIO
    TITLE "7:cjc057_09556"
    INDEX 01 00:36:23
  TRACK 27 AUDIO
    TITLE "0:"
    INDEX 01 00:37:34
  TRACK 28 AUDIO
    TITLE "8:cjc057_09557"
    INDEX 01 00:37:65
  TRACK 29 AUDIO
    TITLE "0:"
    INDEX 01 00:40:07
  TRACK 30 AUDIO
    TITLE "9:cjc057_09558"
    INDEX 01 00:40:54
  TRACK 31 AUDIO
    TITLE "0:"
    INDEX 01 00:42:68
  TRACK 32 AUDIO
    TITLE "7:cjc057_09559"
    INDEX 01 00:44:01
  TRACK 33 AUDIO
    TITLE "0:"
    INDEX 01 00:45:12
  TRACK 34 AUDIO
    TITLE "8:cjc057_09560"
    INDEX 01 00:45:45
  TRACK 35 AUDIO
    TITLE "0:"
    INDEX 01 00:48:34
  TRACK 36 AUDIO
    TITLE "9:cjc057_09561"
    INDEX 01 00:49:04
  TRACK 37 AUDIO
    TITLE "0:"
    INDEX 01 00:51:65
  TRACK 38 AUDIO
    TITLE "7:cjc057_09562"
    INDEX 01 00:52:73
  TRACK 39 AUDIO
    TITLE "0:"
    INDEX 01 00:54:17
  TRACK 40 AUDIO
    TITLE "8:cjc057_09563"
    INDEX 01 00:54:52
  TRACK 41 AUDIO
    TITLE "0:"
    INDEX 01 00:57:13
  TRACK 42 AUDIO
    TITLE "9:cjc057_09564"
    INDEX 01 00:57:58
  TRACK 43 AUDIO
    TITLE "0:"
    INDEX 01 01:01:27
  TRACK 44 AUDIO
    TITLE "7:cjc057_09565"
    INDEX 01 01:02:36
  TRACK 45 AUDIO
    TITLE "0:"
    INDEX 01 01:04:00
  TRACK 46 AUDIO
    TITLE "8:cjc057_09566"
    INDEX 01 01:04:31
  TRACK 47 AUDIO
    TITLE "0:"
    INDEX 01 01:07:31
  TRACK 48 AUDIO
    TITLE "9:cjc057_09567"
    INDEX 01 01:08:01
  TRACK 49 AUDIO
    TITLE "0:"
    INDEX 01 01:12:46
  TRACK 50 AUDIO
    TITLE "7:cjc057_09568"
    INDEX 01 01:13:53
  TRACK 51 AUDIO
    TITLE "0:"
    INDEX 01 01:14:65
  TRACK 52 AUDIO
    TITLE "8:cjc057_09569"
    INDEX 01 01:15:23
  TRACK 53 AUDIO
    TITLE "0:"
    INDEX 01 01:16:52
  TRACK 54 AUDIO
    TITLE "9:cjc057_09570"
    INDEX 01 01:17:24
  TRACK 55 AUDIO
    TITLE "0:"
    INDEX 01 01:20:55
  TRACK 56 AUDIO
    TITLE "7:cjc057_09571"
    INDEX 01 01:21:65
  TRACK 57 AUDIO
    TITLE "0:"
    INDEX 01 01:23:07
  TRACK 58 AUDIO
    TITLE "8:cjc057_09572"
    INDEX 01 01:23:40
  TRACK 59 AUDIO
    TITLE "0:"
    INDEX 01 01:26:17
  TRACK 60 AUDIO
    TITLE "9:cjc057_09573"
    INDEX 01 01:26:64
  TRACK 61 AUDIO
    TITLE "0:"
    INDEX 01 01:30:34
  TRACK 62 AUDIO
    TITLE "7:cjc057_09574"
    INDEX 01 01:31:41
  TRACK 63 AUDIO
    TITLE "0:"
    INDEX 01 01:32:62
  TRACK 64 AUDIO
    TITLE "8:cjc057_09575"
    INDEX 01 01:33:19
  TRACK 65 AUDIO
    TITLE "0:"
    INDEX 01 01:35:51
  TRACK 66 AUDIO
    TITLE "9:cjc057_09576"
    INDEX 01 01:36:21
  TRACK 67 AUDIO
    TITLE "0:"
    INDEX 01 01:39:61
  TRACK 68 AUDIO
    TITLE "7:cjc057_09577"
    INDEX 01 01:40:68
  TRACK 69 AUDIO
    TITLE "0:"
    INDEX 01 01:42:12
  TRACK 70 AUDIO
    TITLE "8:cjc057_09578"
    INDEX 01 01:42:45
  TRACK 71 AUDIO
    TITLE "0:"
    INDEX 01 01:43:70
  TRACK 72 AUDIO
    TITLE "9:cjc057_09579"
    INDEX 01 01:44:40
  TRACK 73 AUDIO
    TITLE "0:"
    INDEX 01 01:47:09
  TRACK 74 AUDIO
    TITLE "7:cjc057_09580"
    INDEX 01 01:48:16
  TRACK 75 AUDIO
    TITLE "0:"
    INDEX 01 01:49:43
  TRACK 76 AUDIO
    TITLE "8:cjc057_09581"
    INDEX 01 01:50:02
  TRACK 77 AUDIO
    TITLE "0:"
    INDEX 01 01:51:38
  TRACK 78 AUDIO
    TITLE "9:cjc057_09582"
    INDEX 01 01:52:08
  TRACK 79 AUDIO
    TITLE "0:"
    INDEX 01 01:56:57
  TRACK 80 AUDIO
    TITLE "7:cjc057_09583"
    INDEX 01 01:57:66
  TRACK 81 AUDIO
    TITLE "0:"
    INDEX 01 01:59:08
  TRACK 82 AUDIO
    TITLE "8:cjc057_09584"
    INDEX 01 01:59:42
  TRACK 83 AUDIO
    TITLE "0:"
    INDEX 01 02:02:01
  TRACK 84 AUDIO
    TITLE "9:cjc057_09585"
    INDEX 01 02:02:50
  TRACK 85 AUDIO
    TITLE "0:"
    INDEX 01 02:05:40
  TRACK 86 AUDIO
    TITLE "7:cjc057_09586"
    INDEX 01 02:06:48
  TRACK 87 AUDIO
    TITLE "0:"
    INDEX 01 02:08:07
  TRACK 88 AUDIO
    TITLE "8:cjc057_09587"
    INDEX 01 02:08:41
  TRACK 89 AUDIO
    TITLE "0:"
    INDEX 01 02:11:27
  TRACK 90 AUDIO
    TITLE "9:cjc057_09588"
    INDEX 01 02:11:72
  TRACK 91 AUDIO
    TITLE "0:"
    INDEX 01 02:15:49
  TRACK 92 AUDIO
    TITLE "7:cjc057_09589"
    INDEX 01 02:16:54
  TRACK 93 AUDIO
    TITLE "0:"
    INDEX 01 02:18:18
  TRACK 94 AUDIO
    TITLE "8:cjc057_09590"
    INDEX 01 02:18:49
  TRACK 95 AUDIO
    TITLE "0:"
    INDEX 01 02:19:74
  TRACK 96 AUDIO
    TITLE "9:cjc057_09591"
    INDEX 01 02:20:46
  TRACK 97 AUDIO
    TITLE "0:"
    INDEX 01 02:24:59
  TRACK 98 AUDIO
    TITLE "7:cjc057_09592"
    INDEX 01 02:25:67
  TRACK 99 AUDIO
    TITLE "0:"
    INDEX 01 02:27:16
  TRACK 100 AUDIO
    TITLE "8:cjc057_09593"
    INDEX 01 02:27:50
  TRACK 101 AUDIO
    TITLE "0:"
    INDEX 01 02:29:19
  TRACK 102 AUDIO
    TITLE "9:cjc057_09594"
    INDEX 01 02:29:64
  TRACK 103 AUDIO
    TITLE "0:"
    INDEX 01 02:32:61
  TRACK 104 AUDIO
    TITLE "7:cjc057_09595"
    INDEX 01 02:33:72
  TRACK 105 AUDIO
    TITLE "0:"
    INDEX 01 02:35:04
  TRACK 106 AUDIO
    TITLE "8:cjc057_09596"
    INDEX 01 02:35:38
  TRACK 107 AUDIO
    TITLE "0:"
    INDEX 01 02:37:72
  TRACK 108 AUDIO
    TITLE "9:cjc057_09597"
    INDEX 01 02:38:46
  TRACK 109 AUDIO
    TITLE "0:"
    INDEX 01 02:41:26
  TRACK 110 AUDIO
    TITLE "7:cjc057_09598"
    INDEX 01 02:42:36
  TRACK 111 AUDIO
    TITLE "0:"
    INDEX 01 02:43:53
  TRACK 112 AUDIO
    TITLE "8:cjc057_09599"
    INDEX 01 02:44:11
  TRACK 113 AUDIO
    TITLE "0:"
    INDEX 01 02:46:51
  TRACK 114 AUDIO
    TITLE "9:cjc057_09600"
    INDEX 01 02:47:19
  TRACK 115 AUDIO
    TITLE "0:"
    INDEX 01 02:49:71
  TRACK 116 AUDIO
    TITLE "7:cjc057_09601"
    INDEX 01 02:51:01
  TRACK 117 AUDIO
    TITLE "0:"
    INDEX 01 02:52:14
  TRACK 118 AUDIO
    TITLE "8:cjc057_09602"
    INDEX 01 02:52:48
  TRACK 119 AUDIO
    TITLE "0:"
    INDEX 01 02:53:59
  TRACK 120 AUDIO
    TITLE "9:cjc057_09603"
    INDEX 01 02:54:29
  TRACK 121 AUDIO
    TITLE "0:"
    INDEX 01 02:57:74
